Coordinates
version=1
nRows=7
nColumns=40
inDegrees=yes

Units are S.I. units (second, meters, Newtons, ...)
Angles are in degrees.

endheader
time	pelvis_tilt	pelvis_list	pelvis_rotation	pelvis_tx	pelvis_ty	pelvis_tz	hip_flexion_r	hip_adduction_r	hip_rotation_r	knee_angle_r	knee_angle_r_beta	ankle_angle_r	subtalar_angle_r	mtp_angle_r	hip_flexion_l	hip_adduction_l	hip_rotation_l	knee_angle_l	knee_angle_l_beta	ankle_angle_l	subtalar_angle_l	mtp_angle_l	lumbar_extension	lumbar_bending	lumbar_rotation	arm_flex_r	arm_add_r	arm_rot_r	elbow_flex_r	pro_sup_r	wrist_flex_r	wrist_dev_r	arm_flex_l	arm_add_l	arm_rot_l	elbow_flex_l	pro_sup_l	wrist_flex_l	wrist_dev_l
     44.22728571	     -4.96943810	     -5.25728179	     -3.61030730	      0.97561044	      0.92013209	      0.38955019	     24.70521786	     -4.71136107	     -2.26771916	     63.39092187	     63.39092187	      2.25731761	    -13.89348852	     -1.29980679	     17.53074771	     -3.85585929	     -4.53175412	     30.12593485	     30.12593485	     19.91130285	    -17.03996193	      8.63749079	    -11.10279039	      7.55732273	      2.50242927	      7.81031906	    -12.52839184	    -21.40781680	     22.84461608	     47.09441866	      0.00000000	      0.00000000	     28.40718351	    -17.60413090	      6.26547600	     45.46140723	     46.14778930	      0.00000000	      0.00000000
     44.24707143	     -4.99704478	     -5.43840038	     -4.29647591	      0.97467080	      0.92184286	      0.38999982	     26.05665703	     -4.19884683	     -1.91663885	     62.60130156	     62.60130156	      2.80891039	    -13.97433449	     -1.08678147	     16.51348473	     -4.14997645	     -5.21563362	     29.06572224	     29.06572224	     19.91482791	    -16.81391645	      8.58145630	    -11.23323304	      7.87212401	      2.48864671	      5.14317254	    -12.30634844	    -21.47165692	     21.90812678	     47.11852781	      0.00000000	      0.00000000	     29.50999806	    -18.12494390	      5.67386040	     46.76376392	     46.23248333	      0.00000000	      0.00000000
     44.26685714	     -5.06704908	     -5.62231712	     -5.03255659	      0.97362187	      0.92369000	      0.39090206	     27.21967706	     -3.66082023	     -1.67853707	     60.91932736	     60.91932736	      3.62379415	    -13.68525002	     -1.26400332	     15.48112892	     -4.46632539	     -5.95197733	     27.88604005	     27.88604005	     19.76029054	    -16.57370056	      8.38050182	    -11.42581433	      8.12225824	      2.57668318	      2.59301759	    -12.08969642	    -21.51970608	     21.17278398	     47.13508620	      0.00000000	      0.00000000	     30.58665560	    -18.67917139	      4.88972982	     48.38918569	     46.33824946	      0.00000000	      0.00000000
     44.28664286	     -5.22755559	     -5.78409871	     -5.77698775	      0.97260255	      0.92554102	      0.39213218	     28.17528112	     -3.16140668	     -1.60695435	     58.27221235	     58.27221235	      4.40638863	    -13.09058568	     -2.12395209	     14.45678499	     -4.75857605	     -6.73360376	     26.54822055	     26.54822055	     19.46222526	    -16.32694034	      7.92854595	    -11.50785109	      8.35398278	      2.58826077	      0.18522402	    -11.82193491	    -21.53227433	     20.73126379	     47.13894256	      0.00000000	      0.00000000	     31.49053779	    -19.30171287	      3.83862292	     50.32971618	     46.47081421	      0.00000000	      0.00000000
     44.30642857	     -5.46867984	     -6.00489529	     -6.52543789	      0.97152099	      0.92728834	      0.39368804	     28.89653676	     -2.58817711	     -1.69217121	     54.74008499	     54.74008499	      5.22940561	    -12.04410248	     -3.00527430	     13.49190752	     -5.10974716	     -7.46866895	     25.16879771	     25.16879771	     19.23797465	    -16.03734320	      7.75889245	    -11.46651505	      8.65159950	      2.42987741	     -1.87060685	    -11.59130285	    -21.53151256	     20.28901037	     47.14288512	      0.00000000	      0.00000000	     32.43149295	    -20.09252129	      3.04235056	     51.67416052	     46.56887315	      0.00000000	      0.00000000
     44.32621429	     -5.75344951	     -6.16260764	     -7.30120389	      0.97046489	      0.92875988	      0.39556774	     29.18878677	     -2.05553678	     -1.88163368	     50.01818647	     50.01818647	      4.36590360	    -11.45942267	     -8.23704306	     12.50858243	     -5.40625517	     -8.30979764	     23.62992260	     23.62992260	     18.22315047	    -16.02397952	      5.76390519	    -11.48663941	      8.84871263	      1.92856424	     -3.92805558	    -11.34585439	    -20.95483328	     21.08841262	     47.06458711	      0.00000000	      0.00000000	     32.45577008	    -21.01166959	      0.39158428	     55.03558449	     46.86597896	      0.00000000	      0.00000000
     44.34600000	     -6.08741711	     -6.34730820	     -8.03330972	      0.96937850	      0.92994342	      0.39772976	     29.32054889	     -1.45812480	     -2.21402182	     44.96544909	     44.96544909	      5.05051270	     -9.30272804	     -8.30428375	     11.74745374	     -5.74397534	     -9.02622636	     22.47906958	     22.47906958	     18.17955012	    -15.69179484	      5.91181026	    -11.36353728	      9.08047714	      1.93910480	     -5.58777391	    -11.21262309	    -20.89333510	     20.54473813	     47.07061278	      0.00000000	      0.00000000	     33.67047175	    -21.72923975	     -0.01238209	     55.90703889	     46.92178050	      0.00000000	      0.00000000
